<?xml version="1.0" encoding="utf-8"?>
<!-- Generator: Adobe Illustrator 23.0.0, SVG Export Plug-In . SVG Version: 6.00 Build 0)  -->
<svg version="1.1" id="Слой_1" xmlns="http://www.w3.org/2000/svg" xmlns:xlink="http://www.w3.org/1999/xlink" x="0px" y="0px"
	 viewBox="0 0 842 595" style="enable-background:new 0 0 842 595;" xml:space="preserve">
<style type="text/css">
	.st0{fill-rule:evenodd;clip-rule:evenodd;fill:#2D2D2C;}
</style>
<g>
	<path class="st0" d="M142.007,267.161l-0.028,0.057l-0.028,0.028l-0.057,0.085v0.028l-1.247,2.013l-0.113,0.17l-0.057,0.113
		l-0.198,0.312l-0.113,0.17l-0.057,0.142l-0.198,0.312c-7.71,12.529-15.42,25.087-23.131,37.616c-0.142,0.198-0.34,0.34-0.624,0.34
		h-7.37c-0.567,0-0.935-0.567-0.68-1.02c-0.028-0.028,33.874-55.304,33.902-55.304c0.283-0.454,0.992-0.454,1.276,0
		c0.028,0,33.931,55.276,33.902,55.304c0.255,0.454-0.113,1.02-0.68,1.02h-7.37c-0.283,0-0.482-0.142-0.624-0.34
		c-7.71-12.529-15.42-25.087-23.131-37.616l-0.198-0.312l-0.057-0.142l-0.113-0.17l-0.198-0.312l-0.057-0.113l-0.113-0.17
		l-1.247-2.013v-0.028l-0.057-0.085l-0.028-0.028l-0.028-0.057c-0.057-0.085-0.142-0.142-0.227-0.198l0,0v-0.028l0,0h-0.028l0,0
		h-0.028l0,0l-0.028-0.028l0,0l0,0l0,0h-0.028l0,0l-0.028-0.028l0,0h-0.028l0,0l0,0l0,0h-0.028l0,0l-0.057-0.028h-0.028l0,0l0,0l0,0
		h-0.028l0,0h-0.028h-0.028h-0.028l0,0l0,0h-0.057h-0.028l0,0h-0.028h-0.028l0,0h-0.028l0,0h-0.028l0,0l-0.028,0.028h-0.028l0,0l0,0
		h-0.028l-0.028,0.028l0,0h-0.028l0,0l0,0l0,0l-0.028,0.028l0,0h-0.028l0,0h-0.028l0,0v0.028l0,0
		C142.148,267.02,142.063,267.076,142.007,267.161L142.007,267.161z M503.254,293.807h20.098v3.373h-23.754V263.25h23.272v3.402
		h-19.616v11.14h15.732v3.402h-15.732V293.807z M541.295,276.572l9.439-13.323h4.365l-11.622,16.214l12.586,17.717h-4.365
		l-10.403-14.797l-10.46,14.797h-4.337l12.586-17.717l-11.622-16.214h4.365L541.295,276.572z M562.13,263.25h12.841
		c3.146,0,5.754,0.992,7.824,3.033c2.041,2.041,3.09,4.592,3.09,7.625c0,3.033-1.049,5.556-3.118,7.625
		c-2.069,2.041-4.677,3.061-7.795,3.061h-9.213v12.586h-3.628V263.25z M574.97,266.651h-9.213v14.542h9.213
		c2.183,0,3.94-0.68,5.272-2.013s1.984-3.061,1.984-5.272c0-2.183-0.652-3.94-1.984-5.272
		C578.911,267.303,577.153,266.651,574.97,266.651L574.97,266.651z M614.712,297.18h-21.09V263.25h3.657v30.557h17.433V297.18z
		 M624.265,270.194c-2.665,2.693-3.997,6.038-3.997,10.006c0,3.997,1.332,7.313,3.997,10.035c2.665,2.693,5.924,4.025,9.808,4.025
		s7.143-1.332,9.836-4.025c2.665-2.721,3.997-6.038,3.997-10.035c0-3.969-1.332-7.313-3.997-10.006
		c-2.693-2.693-5.953-4.054-9.836-4.054S626.93,267.501,624.265,270.194L624.265,270.194z M646.432,267.842
		c3.402,3.402,5.102,7.512,5.102,12.359s-1.701,8.986-5.102,12.359c-3.402,3.402-7.512,5.102-12.359,5.102
		s-8.957-1.701-12.359-5.102c-3.402-3.373-5.074-7.512-5.074-12.359s1.672-8.957,5.074-12.359c3.402-3.373,7.512-5.074,12.359-5.074
		S643.03,264.468,646.432,267.842L646.432,267.842z M659.528,263.25h13.55c3.005,0,5.499,0.964,7.483,2.891
		c1.984,1.956,2.976,4.365,2.976,7.285c0,1.446-0.255,2.75-0.737,3.969c-0.51,1.191-1.077,2.126-1.757,2.806
		s-1.361,1.276-2.069,1.729c-0.68,0.482-1.276,0.794-1.758,0.935l-0.737,0.255l8.022,14.06h-4.11l-7.54-13.578h-9.694v13.578h-3.628
		V263.25z M673.078,266.651h-9.921v13.55h9.921c2.069,0,3.742-0.595,4.961-1.843c1.219-1.219,1.843-2.863,1.843-4.932
		c0-2.069-0.624-3.713-1.843-4.932C676.819,267.246,675.147,266.651,673.078,266.651L673.078,266.651z M695.896,293.807h20.098
		v3.373H692.24V263.25h23.272v3.402h-19.616v11.14h15.732v3.402h-15.732V293.807z M723.251,263.25h13.578
		c2.976,0,5.471,0.964,7.455,2.891c1.984,1.956,2.976,4.365,2.976,7.285c0,1.446-0.255,2.75-0.737,3.969
		c-0.482,1.191-1.077,2.126-1.757,2.806s-1.361,1.276-2.069,1.729c-0.68,0.482-1.276,0.794-1.729,0.935l-0.737,0.255l7.994,14.06
		h-4.11l-7.54-13.578h-9.666v13.578h-3.657V263.25z M736.829,266.651h-9.921v13.55h9.921c2.041,0,3.713-0.595,4.932-1.843
		c1.219-1.219,1.843-2.863,1.843-4.932c0-2.069-0.624-3.713-1.843-4.932C740.542,267.246,738.87,266.651,736.829,266.651
		L736.829,266.651z M459.77,244.768h1.616h1.616v70.866h-1.616h-1.616V244.768z M340.744,308.519c0.397,0,0.709-0.283,0.709-0.68
		c0-6.775,0-13.55,0-20.353c0-0.085,0.028-0.198,0.085-0.312c6.066-10.545,20.693-34.243,20.665-34.243
		c0.255-0.454-0.085-1.02-0.595-1.02c-2.296-0.057-4.592,0-6.888,0c-0.255,0-0.454,0.113-0.595,0.34
		c-4.961,8.589-15.647,25.569-15.647,25.569c-0.142,0.198-0.368,0.34-0.624,0.34c-0.227,0-0.454-0.142-0.567-0.312
		c0.085,0.17-10.857-17.206-15.704-25.597c-0.142-0.227-0.34-0.34-0.595-0.34c-2.296,0-4.592-0.057-6.86,0
		c-0.539,0-0.85,0.567-0.624,1.02c0,0,14.598,23.698,20.693,34.243c0.028,0.113,0.057,0.227,0.085,0.312c0,6.803,0,13.578,0,20.353
		c0,0.397,0.312,0.68,0.68,0.68H340.744z M192.889,280.229c0,11.679,9.468,21.118,21.118,21.118c5.216,0,9.723-1.757,13.663-5.017
		c0.283-0.255,0.737-0.255,1.02,0.028l4.082,4.082c0.255,0.283,0.255,0.737-0.028,0.992c-5.357,4.62-11.622,7.115-18.737,7.115
		c-15.619,0-28.29-12.699-28.29-28.318c0-15.647,12.671-28.318,28.29-28.318c7.115,0,13.38,2.494,18.737,7.115
		c0.283,0.255,0.283,0.709,0.028,0.992l-4.082,4.082c-0.283,0.283-0.737,0.283-1.02,0.028c-3.94-3.26-8.447-5.046-13.663-5.046
		C202.356,259.083,192.889,268.55,192.889,280.229L192.889,280.229z M249.383,252.96c-0.255-0.454,0.057-1.049,0.595-1.049
		c8.022,0,16.044,0,24.066,0c9.78,0,17.745,7.965,17.745,17.745c0,8.05-5.357,14.825-12.699,17.008
		c0.028,0,12.756,20.863,12.756,20.863c0.255,0.454-0.085,1.02-0.652,1.02h-7.285c-0.283,0-0.482-0.142-0.624-0.34
		c-1.417-2.296-16.526-26.901-16.526-26.901c-0.283-0.454,0-1.049,0.567-1.077c2.381,0,4.309,0,6.718,0
		c5.839,0,10.545-4.734,10.545-10.573c0-5.839-4.706-10.573-10.545-10.573c0,0-18.822,0-20.523,0c-0.227,0-0.454-0.113-0.595-0.312
		L249.383,252.96z M394.744,301.347h27.893c0.368,0,0.68,0.312,0.68,0.709v5.783c0,0.397-0.312,0.709-0.68,0.709h-35.065
		c-0.368,0-0.68-0.312-0.68-0.709V252.62c0-0.397,0.312-0.709,0.68-0.709h5.783c0.397,0,0.709,0.312,0.709,0.709v48.076
		C394.063,301.064,394.375,301.347,394.744,301.347L394.744,301.347z M142.035,281.278l-7.228,11.707l0,0
		c-0.057,0.085-0.085,0.198-0.085,0.312c0,0.397,0.312,0.709,0.709,0.709h7.228h7.2c0.397,0,0.709-0.312,0.709-0.709
		c0-0.113-0.028-0.227-0.085-0.312l0,0l-7.228-11.707l0,0c-0.142-0.198-0.34-0.34-0.595-0.34
		C142.404,280.938,142.177,281.079,142.035,281.278L142.035,281.278z"/>
</g>
</svg>
